<mxfile host="Electron" agent="Mozilla/5.0 (Macintosh; Intel Mac OS X 10_15_7) AppleWebKit/537.36 (KHTML, like Gecko) draw.io/26.0.9 Chrome/128.0.6613.186 Electron/32.2.5 Safari/537.36" version="26.0.9">
  <diagram name="Page-1" id="BM1rdHYwk6XgLA9n6XDE">
    <mxGraphModel dx="2115" dy="2160" grid="1" gridSize="10" guides="1" tooltips="1" connect="1" arrows="1" fold="1" page="1" pageScale="1" pageWidth="827" pageHeight="1169" math="0" shadow="0">
      <root>
        <mxCell id="0" />
        <mxCell id="1" parent="0" />
        <mxCell id="__euz2P43ms3ZbJcvNGM-4" value="" style="group;fontFamily=Verdana;" vertex="1" connectable="0" parent="1">
          <mxGeometry x="40" y="110" width="170" height="108" as="geometry" />
        </mxCell>
        <mxCell id="__euz2P43ms3ZbJcvNGM-1" value="" style="sketch=0;points=[[0,0,0],[0.25,0,0],[0.5,0,0],[0.75,0,0],[1,0,0],[0,1,0],[0.25,1,0],[0.5,1,0],[0.75,1,0],[1,1,0],[0,0.25,0],[0,0.5,0],[0,0.75,0],[1,0.25,0],[1,0.5,0],[1,0.75,0]];outlineConnect=0;fontColor=#232F3E;fillColor=#01A88D;strokeColor=#ffffff;dashed=0;verticalLabelPosition=bottom;verticalAlign=top;align=center;html=1;fontSize=12;fontStyle=0;aspect=fixed;shape=mxgraph.aws4.resourceIcon;resIcon=mxgraph.aws4.sagemaker;rounded=1;fontFamily=Verdana;" vertex="1" parent="__euz2P43ms3ZbJcvNGM-4">
          <mxGeometry x="42" width="78" height="78" as="geometry" />
        </mxCell>
        <mxCell id="__euz2P43ms3ZbJcvNGM-3" value="Sagemaker Endpoint" style="text;html=1;align=center;verticalAlign=middle;resizable=0;points=[];autosize=1;strokeColor=none;fillColor=none;fontSize=16;fontFamily=Verdana;" vertex="1" parent="__euz2P43ms3ZbJcvNGM-4">
          <mxGeometry x="-20" y="78" width="190" height="30" as="geometry" />
        </mxCell>
        <mxCell id="__euz2P43ms3ZbJcvNGM-5" value="" style="group;fontFamily=Verdana;" vertex="1" connectable="0" parent="1">
          <mxGeometry x="337" y="110" width="160" height="108" as="geometry" />
        </mxCell>
        <mxCell id="__euz2P43ms3ZbJcvNGM-7" value="Sagemaker Model" style="text;html=1;align=center;verticalAlign=middle;resizable=0;points=[];autosize=1;strokeColor=none;fillColor=none;fontSize=16;fontFamily=Verdana;" vertex="1" parent="__euz2P43ms3ZbJcvNGM-5">
          <mxGeometry x="-10" y="78" width="170" height="30" as="geometry" />
        </mxCell>
        <mxCell id="__euz2P43ms3ZbJcvNGM-8" value="" style="outlineConnect=0;fontColor=#232F3E;gradientColor=none;fillColor=#01A88D;strokeColor=none;dashed=0;verticalLabelPosition=bottom;verticalAlign=top;align=center;html=1;fontSize=12;fontStyle=0;aspect=fixed;pointerEvents=1;shape=mxgraph.aws4.sagemaker_model;fontFamily=Verdana;" vertex="1" parent="__euz2P43ms3ZbJcvNGM-5">
          <mxGeometry x="36" width="78" height="78" as="geometry" />
        </mxCell>
        <mxCell id="__euz2P43ms3ZbJcvNGM-9" style="edgeStyle=orthogonalEdgeStyle;rounded=0;orthogonalLoop=1;jettySize=auto;html=1;strokeWidth=1;endArrow=block;endFill=1;fontFamily=Verdana;" edge="1" parent="1" source="__euz2P43ms3ZbJcvNGM-1" target="__euz2P43ms3ZbJcvNGM-8">
          <mxGeometry relative="1" as="geometry" />
        </mxCell>
        <mxCell id="__euz2P43ms3ZbJcvNGM-55" value="&lt;span style=&quot;color: rgb(77, 77, 77); font-size: 14px;&quot;&gt;model_name&lt;/span&gt;" style="edgeLabel;html=1;align=center;verticalAlign=middle;resizable=0;points=[];fontFamily=Verdana;" vertex="1" connectable="0" parent="__euz2P43ms3ZbJcvNGM-9">
          <mxGeometry x="-0.1935" y="2" relative="1" as="geometry">
            <mxPoint x="14" as="offset" />
          </mxGeometry>
        </mxCell>
        <mxCell id="__euz2P43ms3ZbJcvNGM-20" value="" style="group;fontFamily=Verdana;" vertex="1" connectable="0" parent="1">
          <mxGeometry x="640" y="110" width="150" height="108" as="geometry" />
        </mxCell>
        <mxCell id="__euz2P43ms3ZbJcvNGM-21" value="S3 Bucket" style="text;html=1;align=center;verticalAlign=middle;resizable=0;points=[];autosize=1;strokeColor=none;fillColor=none;fontSize=16;fontFamily=Verdana;" vertex="1" parent="__euz2P43ms3ZbJcvNGM-20">
          <mxGeometry x="25" y="78" width="100" height="30" as="geometry" />
        </mxCell>
        <mxCell id="__euz2P43ms3ZbJcvNGM-18" value="" style="sketch=0;outlineConnect=0;fontColor=#232F3E;gradientColor=none;fillColor=#7AA116;strokeColor=none;dashed=0;verticalLabelPosition=bottom;verticalAlign=top;align=center;html=1;fontSize=12;fontStyle=0;aspect=fixed;pointerEvents=1;shape=mxgraph.aws4.bucket_with_objects;fontFamily=Verdana;" vertex="1" parent="__euz2P43ms3ZbJcvNGM-20">
          <mxGeometry x="37.5" width="75" height="78" as="geometry" />
        </mxCell>
        <mxCell id="__euz2P43ms3ZbJcvNGM-23" style="edgeStyle=orthogonalEdgeStyle;rounded=0;orthogonalLoop=1;jettySize=auto;html=1;endArrow=block;endFill=1;fontFamily=Verdana;" edge="1" parent="1" source="__euz2P43ms3ZbJcvNGM-8" target="__euz2P43ms3ZbJcvNGM-18">
          <mxGeometry relative="1" as="geometry" />
        </mxCell>
        <mxCell id="__euz2P43ms3ZbJcvNGM-58" value="&lt;span style=&quot;color: rgb(77, 77, 77); font-size: 14px;&quot;&gt;model_data_url&lt;/span&gt;" style="edgeLabel;html=1;align=center;verticalAlign=middle;resizable=0;points=[];fontFamily=Verdana;" vertex="1" connectable="0" parent="__euz2P43ms3ZbJcvNGM-23">
          <mxGeometry x="-0.144" y="1" relative="1" as="geometry">
            <mxPoint x="11" as="offset" />
          </mxGeometry>
        </mxCell>
        <mxCell id="__euz2P43ms3ZbJcvNGM-34" value="" style="group;rounded=0;fontFamily=Verdana;" vertex="1" connectable="0" parent="1">
          <mxGeometry x="369" y="-48" width="90" height="78" as="geometry" />
        </mxCell>
        <mxCell id="__euz2P43ms3ZbJcvNGM-32" value="IAM Role" style="text;html=1;align=center;verticalAlign=middle;resizable=0;points=[];autosize=1;strokeColor=none;fillColor=none;fontSize=16;fontFamily=Verdana;" vertex="1" parent="__euz2P43ms3ZbJcvNGM-34">
          <mxGeometry y="48" width="90" height="30" as="geometry" />
        </mxCell>
        <mxCell id="__euz2P43ms3ZbJcvNGM-24" value="" style="sketch=0;outlineConnect=0;fontColor=#232F3E;gradientColor=none;fillColor=#DD344C;strokeColor=none;dashed=0;verticalLabelPosition=bottom;verticalAlign=top;align=center;html=1;fontSize=12;fontStyle=0;aspect=fixed;pointerEvents=1;shape=mxgraph.aws4.role;fontFamily=Verdana;" vertex="1" parent="__euz2P43ms3ZbJcvNGM-34">
          <mxGeometry x="4" width="78" height="44" as="geometry" />
        </mxCell>
        <mxCell id="__euz2P43ms3ZbJcvNGM-41" value="" style="group;fontFamily=Verdana;" vertex="1" connectable="0" parent="1">
          <mxGeometry x="-280" y="-150" width="150" height="97" as="geometry" />
        </mxCell>
        <mxCell id="__euz2P43ms3ZbJcvNGM-38" value="ECR Policy" style="text;html=1;align=center;verticalAlign=middle;resizable=0;points=[];autosize=1;strokeColor=none;fillColor=none;fontSize=16;fontFamily=Verdana;" vertex="1" parent="__euz2P43ms3ZbJcvNGM-41">
          <mxGeometry x="20" y="67" width="110" height="30" as="geometry" />
        </mxCell>
        <mxCell id="__euz2P43ms3ZbJcvNGM-40" value="" style="sketch=0;outlineConnect=0;fontColor=#232F3E;gradientColor=none;fillColor=#DD344C;strokeColor=none;dashed=0;verticalLabelPosition=bottom;verticalAlign=top;align=center;html=1;fontSize=12;fontStyle=0;aspect=fixed;pointerEvents=1;shape=mxgraph.aws4.policy;fontFamily=Verdana;" vertex="1" parent="__euz2P43ms3ZbJcvNGM-41">
          <mxGeometry x="40" width="78" height="67" as="geometry" />
        </mxCell>
        <mxCell id="__euz2P43ms3ZbJcvNGM-48" style="edgeStyle=orthogonalEdgeStyle;rounded=0;orthogonalLoop=1;jettySize=auto;html=1;endArrow=block;endFill=1;fontFamily=Verdana;" edge="1" parent="1" source="__euz2P43ms3ZbJcvNGM-8" target="__euz2P43ms3ZbJcvNGM-24">
          <mxGeometry relative="1" as="geometry" />
        </mxCell>
        <mxCell id="__euz2P43ms3ZbJcvNGM-57" value="&lt;span style=&quot;color: rgb(77, 77, 77); font-size: 14px;&quot;&gt;execution_role&lt;/span&gt;" style="edgeLabel;html=1;align=center;verticalAlign=middle;resizable=0;points=[];fontFamily=Verdana;" vertex="1" connectable="0" parent="__euz2P43ms3ZbJcvNGM-48">
          <mxGeometry x="0.1488" y="-1" relative="1" as="geometry">
            <mxPoint y="15" as="offset" />
          </mxGeometry>
        </mxCell>
        <mxCell id="__euz2P43ms3ZbJcvNGM-51" value="" style="group;fontFamily=Verdana;" vertex="1" connectable="0" parent="1">
          <mxGeometry x="-300" y="110" width="190" height="126" as="geometry" />
        </mxCell>
        <mxCell id="__euz2P43ms3ZbJcvNGM-14" value="" style="sketch=0;points=[[0,0,0],[0.25,0,0],[0.5,0,0],[0.75,0,0],[1,0,0],[0,1,0],[0.25,1,0],[0.5,1,0],[0.75,1,0],[1,1,0],[0,0.25,0],[0,0.5,0],[0,0.75,0],[1,0.25,0],[1,0.5,0],[1,0.75,0]];outlineConnect=0;fontColor=#232F3E;fillColor=#01A88D;strokeColor=#ffffff;dashed=0;verticalLabelPosition=bottom;verticalAlign=top;align=center;html=1;fontSize=12;fontStyle=0;aspect=fixed;shape=mxgraph.aws4.resourceIcon;resIcon=mxgraph.aws4.sagemaker;rounded=1;fontFamily=Verdana;" vertex="1" parent="__euz2P43ms3ZbJcvNGM-51">
          <mxGeometry x="55" width="78" height="78" as="geometry" />
        </mxCell>
        <mxCell id="__euz2P43ms3ZbJcvNGM-15" value="&lt;font&gt;Sagemaker Endpoint&amp;nbsp;&lt;/font&gt;&lt;div&gt;&lt;font&gt;Configuration&lt;/font&gt;&lt;/div&gt;" style="text;html=1;align=center;verticalAlign=middle;resizable=0;points=[];autosize=1;strokeColor=none;fillColor=none;fontSize=16;fontFamily=Verdana;" vertex="1" parent="__euz2P43ms3ZbJcvNGM-51">
          <mxGeometry x="-10" y="76" width="200" height="50" as="geometry" />
        </mxCell>
        <mxCell id="__euz2P43ms3ZbJcvNGM-60" style="edgeStyle=orthogonalEdgeStyle;rounded=0;orthogonalLoop=1;jettySize=auto;html=1;endArrow=block;endFill=1;fontFamily=Verdana;" edge="1" parent="1" source="__euz2P43ms3ZbJcvNGM-1" target="__euz2P43ms3ZbJcvNGM-14">
          <mxGeometry relative="1" as="geometry" />
        </mxCell>
        <mxCell id="__euz2P43ms3ZbJcvNGM-61" value="&lt;font color=&quot;#4d4d4d&quot;&gt;&lt;span style=&quot;font-size: 14px;&quot;&gt;endpoint_config_name&lt;/span&gt;&lt;/font&gt;" style="edgeLabel;html=1;align=center;verticalAlign=middle;resizable=0;points=[];fontFamily=Verdana;" vertex="1" connectable="0" parent="__euz2P43ms3ZbJcvNGM-60">
          <mxGeometry x="-0.0482" relative="1" as="geometry">
            <mxPoint as="offset" />
          </mxGeometry>
        </mxCell>
        <mxCell id="__euz2P43ms3ZbJcvNGM-71" value="" style="group" vertex="1" connectable="0" parent="1">
          <mxGeometry x="20" y="-150" width="210" height="97" as="geometry" />
        </mxCell>
        <mxCell id="__euz2P43ms3ZbJcvNGM-64" value="ECR Policy Attachment" style="text;html=1;align=center;verticalAlign=middle;resizable=0;points=[];autosize=1;strokeColor=none;fillColor=none;fontSize=16;fontFamily=Verdana;" vertex="1" parent="__euz2P43ms3ZbJcvNGM-71">
          <mxGeometry y="67" width="210" height="30" as="geometry" />
        </mxCell>
        <mxCell id="__euz2P43ms3ZbJcvNGM-65" value="" style="sketch=0;outlineConnect=0;fontColor=#232F3E;gradientColor=none;fillColor=#DD344C;strokeColor=none;dashed=0;verticalLabelPosition=bottom;verticalAlign=top;align=center;html=1;fontSize=12;fontStyle=0;aspect=fixed;pointerEvents=1;shape=mxgraph.aws4.policy;fontFamily=Verdana;" vertex="1" parent="__euz2P43ms3ZbJcvNGM-71">
          <mxGeometry x="70" width="78" height="67" as="geometry" />
        </mxCell>
        <mxCell id="__euz2P43ms3ZbJcvNGM-72" value="" style="group" vertex="1" connectable="0" parent="1">
          <mxGeometry x="20" y="-332" width="210" height="97" as="geometry" />
        </mxCell>
        <mxCell id="__euz2P43ms3ZbJcvNGM-73" value="S3 Policy Attachment" style="text;html=1;align=center;verticalAlign=middle;resizable=0;points=[];autosize=1;strokeColor=none;fillColor=none;fontSize=16;fontFamily=Verdana;" vertex="1" parent="__euz2P43ms3ZbJcvNGM-72">
          <mxGeometry x="10" y="67" width="190" height="30" as="geometry" />
        </mxCell>
        <mxCell id="__euz2P43ms3ZbJcvNGM-74" value="" style="sketch=0;outlineConnect=0;fontColor=#232F3E;gradientColor=none;fillColor=#DD344C;strokeColor=none;dashed=0;verticalLabelPosition=bottom;verticalAlign=top;align=center;html=1;fontSize=12;fontStyle=0;aspect=fixed;pointerEvents=1;shape=mxgraph.aws4.policy;fontFamily=Verdana;" vertex="1" parent="__euz2P43ms3ZbJcvNGM-72">
          <mxGeometry x="70" width="78" height="67" as="geometry" />
        </mxCell>
        <mxCell id="__euz2P43ms3ZbJcvNGM-76" style="rounded=0;orthogonalLoop=1;jettySize=auto;html=1;flowAnimation=0;elbow=vertical;edgeStyle=orthogonalEdgeStyle;" edge="1" parent="1" source="__euz2P43ms3ZbJcvNGM-74" target="__euz2P43ms3ZbJcvNGM-24">
          <mxGeometry relative="1" as="geometry" />
        </mxCell>
        <mxCell id="__euz2P43ms3ZbJcvNGM-84" value="&lt;span style=&quot;color: rgb(77, 77, 77); font-family: Verdana; font-size: 14px;&quot;&gt;role&lt;/span&gt;" style="edgeLabel;html=1;align=center;verticalAlign=middle;resizable=0;points=[];" vertex="1" connectable="0" parent="__euz2P43ms3ZbJcvNGM-76">
          <mxGeometry x="-0.5309" relative="1" as="geometry">
            <mxPoint as="offset" />
          </mxGeometry>
        </mxCell>
        <mxCell id="__euz2P43ms3ZbJcvNGM-77" value="" style="group;fontFamily=Verdana;" vertex="1" connectable="0" parent="1">
          <mxGeometry x="-280" y="-332" width="150" height="97" as="geometry" />
        </mxCell>
        <mxCell id="__euz2P43ms3ZbJcvNGM-78" value="S3 Policy" style="text;html=1;align=center;verticalAlign=middle;resizable=0;points=[];autosize=1;strokeColor=none;fillColor=none;fontSize=16;fontFamily=Verdana;" vertex="1" parent="__euz2P43ms3ZbJcvNGM-77">
          <mxGeometry x="25" y="67" width="100" height="30" as="geometry" />
        </mxCell>
        <mxCell id="__euz2P43ms3ZbJcvNGM-79" value="" style="sketch=0;outlineConnect=0;fontColor=#232F3E;gradientColor=none;fillColor=#DD344C;strokeColor=none;dashed=0;verticalLabelPosition=bottom;verticalAlign=top;align=center;html=1;fontSize=12;fontStyle=0;aspect=fixed;pointerEvents=1;shape=mxgraph.aws4.policy;fontFamily=Verdana;" vertex="1" parent="__euz2P43ms3ZbJcvNGM-77">
          <mxGeometry x="40" width="78" height="67" as="geometry" />
        </mxCell>
        <mxCell id="__euz2P43ms3ZbJcvNGM-80" style="edgeStyle=orthogonalEdgeStyle;rounded=0;orthogonalLoop=1;jettySize=auto;html=1;" edge="1" parent="1" source="__euz2P43ms3ZbJcvNGM-74" target="__euz2P43ms3ZbJcvNGM-79">
          <mxGeometry relative="1" as="geometry" />
        </mxCell>
        <mxCell id="__euz2P43ms3ZbJcvNGM-86" value="&lt;span style=&quot;color: rgb(77, 77, 77); font-family: Verdana; font-size: 14px;&quot;&gt;policy&lt;/span&gt;" style="edgeLabel;html=1;align=center;verticalAlign=middle;resizable=0;points=[];" vertex="1" connectable="0" parent="__euz2P43ms3ZbJcvNGM-80">
          <mxGeometry x="0.114" y="-3" relative="1" as="geometry">
            <mxPoint as="offset" />
          </mxGeometry>
        </mxCell>
        <mxCell id="__euz2P43ms3ZbJcvNGM-81" style="edgeStyle=orthogonalEdgeStyle;rounded=0;orthogonalLoop=1;jettySize=auto;html=1;" edge="1" parent="1" source="__euz2P43ms3ZbJcvNGM-65" target="__euz2P43ms3ZbJcvNGM-24">
          <mxGeometry relative="1" as="geometry" />
        </mxCell>
        <mxCell id="__euz2P43ms3ZbJcvNGM-83" value="&lt;font face=&quot;Verdana&quot; color=&quot;#4d4d4d&quot;&gt;&lt;span style=&quot;font-size: 14px;&quot;&gt;role&lt;/span&gt;&lt;/font&gt;" style="edgeLabel;html=1;align=center;verticalAlign=middle;resizable=0;points=[];" vertex="1" connectable="0" parent="__euz2P43ms3ZbJcvNGM-81">
          <mxGeometry x="-0.3108" y="3" relative="1" as="geometry">
            <mxPoint as="offset" />
          </mxGeometry>
        </mxCell>
        <mxCell id="__euz2P43ms3ZbJcvNGM-82" style="edgeStyle=orthogonalEdgeStyle;rounded=0;orthogonalLoop=1;jettySize=auto;html=1;" edge="1" parent="1" source="__euz2P43ms3ZbJcvNGM-65" target="__euz2P43ms3ZbJcvNGM-40">
          <mxGeometry relative="1" as="geometry" />
        </mxCell>
        <mxCell id="__euz2P43ms3ZbJcvNGM-85" value="&lt;font face=&quot;Verdana&quot; color=&quot;#4d4d4d&quot;&gt;&lt;span style=&quot;font-size: 14px;&quot;&gt;policy&lt;/span&gt;&lt;/font&gt;" style="edgeLabel;html=1;align=center;verticalAlign=middle;resizable=0;points=[];" vertex="1" connectable="0" parent="__euz2P43ms3ZbJcvNGM-82">
          <mxGeometry x="0.09" y="-1" relative="1" as="geometry">
            <mxPoint as="offset" />
          </mxGeometry>
        </mxCell>
      </root>
    </mxGraphModel>
  </diagram>
</mxfile>
